<?xml version="1.0" encoding="UTF-8"?>
<svg xmlns="http://www.w3.org/2000/svg" xmlns:xlink="http://www.w3.org/1999/xlink" viewBox="0 0 64 64" width="64px" height="64px">
<g id="surface2863032">
<path style=" stroke:none;fill-rule:nonzero;fill:rgb(90.588236%,29.803923%,23.529412%);fill-opacity:1;" d="M 32 58 C 25.15625 58 15.980469 57.84375 12.460938 57.554688 C 7.773438 57.15625 7.304688 52.640625 7.085938 45.246094 L 7.070312 44.808594 C 7.050781 44.148438 7.03125 43.492188 7 42.851562 C 7 39.378906 7.359375 35.339844 7.9375 32.347656 C 8.898438 28.433594 10.839844 28.375 15.523438 28.230469 C 16.230469 28.210938 16.96875 28.1875 17.738281 28.148438 C 17.738281 28.148438 18.171875 28.140625 18.585938 28.132812 C 20.417969 28.09375 24.703125 28 31.839844 28 L 32.167969 28 C 39.230469 28 43.492188 28.09375 45.3125 28.132812 C 45.3125 28.132812 46.226562 28.152344 46.347656 28.152344 C 47.027344 28.1875 47.769531 28.210938 48.476562 28.230469 C 53.160156 28.375 55.101562 28.433594 56.078125 32.421875 C 56.644531 35.359375 57 39.394531 57 42.921875 C 56.972656 43.554688 56.949219 44.261719 56.925781 44.980469 L 56.917969 45.242188 C 56.699219 52.636719 56.230469 57.152344 51.539062 57.550781 C 48.03125 57.84375 38.855469 58 32 58 Z M 32 58 "/>
<path style=" stroke:none;fill-rule:nonzero;fill:rgb(92.941177%,47.058824%,60.000002%);fill-opacity:1;" d="M 53 58 L 11 58 L 8 53 L 56 53 Z M 53 58 "/>
<path style=" stroke:none;fill-rule:nonzero;fill:rgb(55.29412%,42.352942%,62.352943%);fill-opacity:1;" d="M 32 59 C 25.140625 59 15.933594 58.84375 12.378906 58.550781 C 6.460938 58.050781 6.277344 51.84375 6.085938 45.273438 L 6.070312 44.839844 C 6.050781 44.183594 6.03125 43.535156 6 42.898438 C 6 39.304688 6.367188 35.207031 6.957031 32.160156 C 8.109375 27.460938 10.730469 27.378906 15.492188 27.234375 C 16.199219 27.210938 16.925781 27.191406 17.683594 27.148438 L 18.5625 27.132812 C 20.402344 27.09375 24.695312 27 31.839844 27 L 32.171875 27 C 39.121094 27 43.40625 27.089844 45.238281 27.128906 C 45.335938 27.132812 46.230469 27.152344 46.347656 27.152344 C 47.074219 27.1875 47.804688 27.214844 48.503906 27.230469 C 53.269531 27.378906 55.890625 27.457031 57.050781 32.179688 C 57.640625 35.246094 58 39.34375 58 42.921875 C 57.96875 43.59375 57.949219 44.300781 57.925781 45.011719 L 57.917969 45.277344 C 57.722656 51.84375 57.539062 58.046875 51.625 58.550781 C 48.085938 58.839844 38.875 59 32 59 Z M 31.835938 29 C 24.71875 29 20.4375 29.09375 18.609375 29.132812 L 17.75 29.148438 C 17.019531 29.1875 16.273438 29.210938 15.5625 29.230469 C 10.710938 29.378906 9.660156 29.519531 8.910156 32.585938 C 8.355469 35.46875 8 39.421875 8 42.851562 C 8.027344 43.453125 8.050781 44.113281 8.070312 44.777344 L 8.085938 45.214844 C 8.324219 53.328125 9.03125 56.261719 12.542969 56.558594 C 16.042969 56.84375 25.179688 57 32 57 C 38.835938 57 47.976562 56.84375 51.457031 56.558594 C 54.96875 56.261719 55.679688 53.328125 55.917969 45.214844 L 55.925781 44.949219 C 55.949219 44.226562 55.972656 43.511719 56 42.875 C 56 39.460938 55.652344 35.511719 55.097656 32.609375 C 54.339844 29.519531 53.285156 29.378906 48.445312 29.230469 C 47.730469 29.210938 46.980469 29.1875 46.292969 29.148438 C 46.21875 29.1875 45.289062 29.128906 45.289062 29.128906 C 43.371094 29.089844 39.101562 29 32.167969 29 Z M 31.835938 29 "/>
<path style=" stroke:none;fill-rule:nonzero;fill:rgb(55.29412%,42.352942%,62.352943%);fill-opacity:1;" d="M 21 23 C 20.449219 23 20 22.554688 20 22 L 20 15.257812 L 15.125 6.484375 C 14.855469 6.003906 15.03125 5.394531 15.515625 5.128906 C 15.996094 4.855469 16.605469 5.03125 16.875 5.515625 L 21.875 14.515625 C 21.957031 14.664062 22 14.828125 22 15 L 22 22 C 22 22.554688 21.550781 23 21 23 Z M 21 23 "/>
<path style=" stroke:none;fill-rule:nonzero;fill:rgb(55.29412%,42.352942%,62.352943%);fill-opacity:1;" d="M 21 16 C 20.835938 16 20.667969 15.960938 20.515625 15.875 C 20.03125 15.605469 19.855469 14.996094 20.125 14.515625 L 25.125 5.515625 C 25.394531 5.03125 26.003906 4.855469 26.484375 5.125 C 26.96875 5.394531 27.144531 6.003906 26.875 6.484375 L 21.875 15.484375 C 21.691406 15.8125 21.351562 16 21 16 Z M 21 16 "/>
<path style=" stroke:none;fill-rule:nonzero;fill:rgb(55.29412%,42.352942%,62.352943%);fill-opacity:1;" d="M 31.5 23 C 29.019531 23 27 20.980469 27 18.5 L 27 16.5 C 27 14.019531 29.019531 12 31.5 12 C 33.980469 12 36 14.019531 36 16.5 L 36 18.5 C 36 20.980469 33.980469 23 31.5 23 Z M 31.5 14 C 30.121094 14 29 15.121094 29 16.5 L 29 18.5 C 29 19.878906 30.121094 21 31.5 21 C 32.878906 21 34 19.878906 34 18.5 L 34 16.5 C 34 15.121094 32.878906 14 31.5 14 Z M 31.5 14 "/>
<path style=" stroke:none;fill-rule:nonzero;fill:rgb(55.29412%,42.352942%,62.352943%);fill-opacity:1;" d="M 43.5 23 C 41.019531 23 39 20.980469 39 18.5 L 39 13 C 39 12.445312 39.449219 12 40 12 C 40.550781 12 41 12.445312 41 13 L 41 18.5 C 41 19.878906 42.121094 21 43.5 21 C 44.878906 21 46 19.878906 46 18.5 L 46 13 C 46 12.445312 46.449219 12 47 12 C 47.550781 12 48 12.445312 48 13 L 48 18.5 C 48 20.980469 45.980469 23 43.5 23 Z M 43.5 23 "/>
<path style=" stroke:none;fill-rule:nonzero;fill:rgb(100%,97.254902%,93.333334%);fill-opacity:1;" d="M 25.5 49 C 23.019531 49 21 46.980469 21 44.5 L 21 39 C 21 38.445312 21.449219 38 22 38 C 22.550781 38 23 38.445312 23 39 L 23 44.5 C 23 45.878906 24.121094 47 25.5 47 C 26.878906 47 28 45.878906 28 44.5 L 28 39 C 28 38.445312 28.449219 38 29 38 C 29.550781 38 30 38.445312 30 39 L 30 44.5 C 30 46.980469 27.980469 49 25.5 49 Z M 25.5 49 "/>
<path style=" stroke:none;fill-rule:nonzero;fill:rgb(100%,97.254902%,93.333334%);fill-opacity:1;" d="M 16 49 C 15.449219 49 15 48.554688 15 48 L 15 33 C 15 32.445312 15.449219 32 16 32 C 16.550781 32 17 32.445312 17 33 L 17 48 C 17 48.554688 16.550781 49 16 49 Z M 16 49 "/>
<path style=" stroke:none;fill-rule:nonzero;fill:rgb(100%,97.254902%,93.333334%);fill-opacity:1;" d="M 20 34 L 12 34 C 11.449219 34 11 33.554688 11 33 C 11 32.445312 11.449219 32 12 32 L 20 32 C 20.550781 32 21 32.445312 21 33 C 21 33.554688 20.550781 34 20 34 Z M 20 34 "/>
<path style=" stroke:none;fill-rule:nonzero;fill:rgb(100%,97.254902%,93.333334%);fill-opacity:1;" d="M 49.5 49 C 47.019531 49 45 46.980469 45 44.5 L 45 42.5 C 45 40.019531 47.019531 38 49.5 38 C 51.980469 38 54 40.019531 54 42.5 L 54 43 C 54 43.554688 53.550781 44 53 44 L 47 44 L 47 44.5 C 47 45.878906 48.121094 47 49.5 47 C 50.460938 47 51.347656 46.4375 51.761719 45.570312 C 51.996094 45.070312 52.59375 44.859375 53.09375 45.097656 C 53.589844 45.332031 53.804688 45.929688 53.566406 46.429688 C 52.824219 47.992188 51.230469 49 49.5 49 Z M 47.050781 42 L 51.949219 42 C 51.71875 40.859375 50.707031 40 49.5 40 C 48.289062 40 47.28125 40.859375 47.050781 42 Z M 47.050781 42 "/>
<path style=" stroke:none;fill-rule:nonzero;fill:rgb(100%,97.254902%,93.333334%);fill-opacity:1;" d="M 34 49 C 33.449219 49 33 48.554688 33 48 L 33 33 C 33 32.445312 33.449219 32 34 32 C 34.550781 32 35 32.445312 35 33 L 35 48 C 35 48.554688 34.550781 49 34 49 Z M 34 49 "/>
<path style=" stroke:none;fill-rule:nonzero;fill:rgb(100%,97.254902%,93.333334%);fill-opacity:1;" d="M 36.5 49 L 34 49 C 33.449219 49 33 48.554688 33 48 C 33 47.445312 33.449219 47 34 47 L 36.5 47 C 38.429688 47 40 45.429688 40 43.5 C 40 41.570312 38.429688 40 36.5 40 L 34 40 C 33.449219 40 33 39.554688 33 39 C 33 38.445312 33.449219 38 34 38 L 36.5 38 C 39.53125 38 42 40.46875 42 43.5 C 42 46.53125 39.53125 49 36.5 49 Z M 36.5 49 "/>
<path style=" stroke:none;fill-rule:nonzero;fill:rgb(55.29412%,42.352942%,62.352943%);fill-opacity:1;" d="M 12 55 C 12.550781 55 13 54.550781 13 54 L 13 52 C 13 51.449219 12.550781 51 12 51 C 11.449219 51 11 51.449219 11 52 L 11 54 C 11 54.550781 11.449219 55 12 55 Z M 12 55 "/>
<path style=" stroke:none;fill-rule:nonzero;fill:rgb(55.29412%,42.352942%,62.352943%);fill-opacity:1;" d="M 17 55 C 17.550781 55 18 54.550781 18 54 L 18 52 C 18 51.449219 17.550781 51 17 51 C 16.449219 51 16 51.449219 16 52 L 16 54 C 16 54.550781 16.449219 55 17 55 Z M 17 55 "/>
<path style=" stroke:none;fill-rule:nonzero;fill:rgb(55.29412%,42.352942%,62.352943%);fill-opacity:1;" d="M 22 55 C 22.550781 55 23 54.550781 23 54 L 23 52 C 23 51.449219 22.550781 51 22 51 C 21.449219 51 21 51.449219 21 52 L 21 54 C 21 54.550781 21.449219 55 22 55 Z M 22 55 "/>
<path style=" stroke:none;fill-rule:nonzero;fill:rgb(55.29412%,42.352942%,62.352943%);fill-opacity:1;" d="M 32 55 C 32.550781 55 33 54.550781 33 54 L 33 52 C 33 51.449219 32.550781 51 32 51 C 31.449219 51 31 51.449219 31 52 L 31 54 C 31 54.550781 31.449219 55 32 55 Z M 32 55 "/>
<path style=" stroke:none;fill-rule:nonzero;fill:rgb(55.29412%,42.352942%,62.352943%);fill-opacity:1;" d="M 27 55 C 27.550781 55 28 54.550781 28 54 L 28 52 C 28 51.449219 27.550781 51 27 51 C 26.449219 51 26 51.449219 26 52 L 26 54 C 26 54.550781 26.449219 55 27 55 Z M 27 55 "/>
<path style=" stroke:none;fill-rule:nonzero;fill:rgb(55.29412%,42.352942%,62.352943%);fill-opacity:1;" d="M 37 55 C 37.550781 55 38 54.550781 38 54 L 38 52 C 38 51.449219 37.550781 51 37 51 C 36.449219 51 36 51.449219 36 52 L 36 54 C 36 54.550781 36.449219 55 37 55 Z M 37 55 "/>
<path style=" stroke:none;fill-rule:nonzero;fill:rgb(55.29412%,42.352942%,62.352943%);fill-opacity:1;" d="M 42 55 C 42.550781 55 43 54.550781 43 54 L 43 52 C 43 51.449219 42.550781 51 42 51 C 41.449219 51 41 51.449219 41 52 L 41 54 C 41 54.550781 41.449219 55 42 55 Z M 42 55 "/>
<path style=" stroke:none;fill-rule:nonzero;fill:rgb(55.29412%,42.352942%,62.352943%);fill-opacity:1;" d="M 47 55 C 47.550781 55 48 54.550781 48 54 L 48 52 C 48 51.449219 47.550781 51 47 51 C 46.449219 51 46 51.449219 46 52 L 46 54 C 46 54.550781 46.449219 55 47 55 Z M 47 55 "/>
<path style=" stroke:none;fill-rule:nonzero;fill:rgb(55.29412%,42.352942%,62.352943%);fill-opacity:1;" d="M 52 55 C 52.550781 55 53 54.550781 53 54 L 53 52 C 53 51.449219 52.550781 51 52 51 C 51.449219 51 51 51.449219 51 52 L 51 54 C 51 54.550781 51.449219 55 52 55 Z M 52 55 "/>
</g>
</svg>
