<?xml version="1.0" encoding="UTF-8"?>
<svg xmlns="http://www.w3.org/2000/svg" xmlns:xlink="http://www.w3.org/1999/xlink" viewBox="0 0 100 100" width="100px" height="100px">
<g id="surface2856823">
<path style=" stroke:none;fill-rule:nonzero;fill:rgb(78.039217%,92.941177%,90.196079%);fill-opacity:1;" d="M 87.214844 56.710938 C 88.351562 54.554688 89 52.105469 89 49.5 C 89 42.878906 84.839844 37.242188 79 35.023438 C 79 35.015625 79 35.007812 79 35 C 79 23.402344 69.597656 14 58 14 C 48.214844 14 40.019531 20.699219 37.6875 29.757812 C 36.210938 29.273438 34.636719 29 33 29 C 25.308594 29 18.976562 34.792969 18.109375 42.253906 C 12.90625 43.351562 9 47.96875 9 53.5 C 9 59.851562 14.148438 65 20.5 65 C 20.675781 65 20.851562 64.988281 21.027344 64.976562 C 21.023438 65.152344 21 65.324219 21 65.5 C 21 76.820312 30.179688 86 41.5 86 C 47.9375 86 53.675781 83.027344 57.433594 78.386719 C 59.613281 80.609375 62.640625 82 66 82 C 70.648438 82 74.675781 79.351562 76.664062 75.480469 C 77.71875 75.816406 78.835938 76 80 76 C 86.074219 76 91 71.074219 91 65 C 91 61.6875 89.53125 58.726562 87.214844 56.710938 Z M 87.214844 56.710938 "/>
<path style=" stroke:none;fill-rule:nonzero;fill:rgb(99.215686%,98.823529%,93.725491%);fill-opacity:1;" d="M 79.875 55.5 C 79.875 55.5 83.515625 55.5 86 55.5 C 88.484375 55.5 90.5 53.484375 90.5 51 C 90.5 48.667969 88.71875 46.769531 86.445312 46.546875 C 86.46875 46.363281 86.5 46.1875 86.5 46 C 86.5 43.515625 84.484375 41.5 82 41.5 C 80.5625 41.5 79.296875 42.1875 78.472656 43.234375 C 78.332031 40.601562 76.171875 38.5 73.5 38.5 C 70.738281 38.5 68.5 40.738281 68.5 43.5 C 68.5 43.945312 68.578125 44.371094 68.6875 44.78125 C 68.046875 44.003906 67.085938 43.5 66 43.5 C 64.21875 43.5 62.765625 44.835938 62.546875 46.554688 C 62.363281 46.53125 62.1875 46.5 62 46.5 C 59.515625 46.5 57.5 48.515625 57.5 51 C 57.5 53.484375 59.515625 55.5 62 55.5 C 64.484375 55.5 71.5 55.5 71.5 55.5 L 76.875 55.5 L 76.875 56 L 79.875 56 Z M 79.875 55.5 "/>
<path style=" stroke:none;fill-rule:nonzero;fill:rgb(27.843139%,16.862746%,16.078432%);fill-opacity:1;" d="M 73.5 38 C 70.46875 38 68 40.46875 68 43.5 C 68 43.515625 68 43.53125 68 43.546875 C 67.398438 43.191406 66.710938 43 66 43 C 64.167969 43 62.589844 44.261719 62.140625 46.003906 C 62.09375 46.003906 62.046875 46 62 46 C 59.242188 46 57 48.242188 57 51 C 57 53.757812 59.242188 56 62 56 L 76.875 56 C 77.152344 56 77.375 55.777344 77.375 55.5 C 77.375 55.222656 77.152344 55 76.875 55 L 62 55 C 59.792969 55 58 53.207031 58 51 C 58 48.792969 59.792969 47 62 47 C 62.117188 47 62.230469 47.015625 62.34375 47.03125 L 62.484375 47.050781 C 62.503906 47.054688 62.523438 47.054688 62.546875 47.054688 C 62.792969 47.054688 63.007812 46.871094 63.039062 46.617188 C 63.230469 45.125 64.503906 44 66 44 C 66.886719 44 67.722656 44.402344 68.300781 45.101562 C 68.398438 45.21875 68.542969 45.28125 68.6875 45.28125 C 68.765625 45.28125 68.84375 45.265625 68.914062 45.226562 C 69.125 45.117188 69.230469 44.878906 69.167969 44.652344 C 69.054688 44.21875 69 43.851562 69 43.5 C 69 41.019531 71.019531 39 73.5 39 C 75.882812 39 77.847656 40.871094 77.972656 43.261719 C 77.984375 43.472656 78.125 43.648438 78.324219 43.714844 C 78.371094 43.730469 78.425781 43.738281 78.476562 43.738281 C 78.625 43.738281 78.769531 43.667969 78.867188 43.546875 C 79.636719 42.5625 80.777344 42 82 42 C 84.207031 42 86 43.792969 86 46 C 86 46.117188 85.984375 46.230469 85.96875 46.34375 L 85.949219 46.484375 C 85.933594 46.617188 85.972656 46.753906 86.054688 46.855469 C 86.140625 46.960938 86.261719 47.027344 86.394531 47.042969 C 88.449219 47.246094 90 48.949219 90 51 C 90 53.207031 88.207031 55 86 55 L 79.875 55 C 79.597656 55 79.375 55.222656 79.375 55.5 C 79.375 55.777344 79.597656 56 79.875 56 L 86 56 C 88.757812 56 91 53.757812 91 51 C 91 48.601562 89.3125 46.585938 86.996094 46.121094 C 87 46.082031 87 46.039062 87 46 C 87 43.242188 84.757812 41 82 41 C 80.824219 41 79.707031 41.414062 78.816406 42.164062 C 78.21875 39.761719 76.054688 38 73.5 38 Z M 73.5 38 "/>
<path style=" stroke:none;fill-rule:nonzero;fill:rgb(27.843139%,16.862746%,16.078432%);fill-opacity:1;" d="M 72 45 C 70.597656 45 69.390625 46 69.085938 47.339844 C 68.71875 47.117188 68.300781 47 67.875 47 C 66.671875 47 65.675781 47.898438 65.523438 49.066406 C 65.320312 49.023438 65.125 49 64.9375 49 C 63.410156 49 62.128906 50.199219 62.019531 51.730469 C 62.011719 51.871094 62.113281 51.988281 62.25 52 C 62.257812 52 62.261719 52 62.269531 52 C 62.398438 52 62.507812 51.898438 62.519531 51.769531 C 62.605469 50.496094 63.667969 49.5 64.9375 49.5 C 65.164062 49.5 65.40625 49.542969 65.675781 49.628906 C 65.695312 49.632812 65.71875 49.636719 65.742188 49.636719 C 65.796875 49.636719 65.851562 49.617188 65.898438 49.582031 C 65.960938 49.535156 66 49.453125 66 49.375 C 66 48.339844 66.839844 47.5 67.875 47.5 C 68.320312 47.5 68.761719 47.667969 69.105469 47.972656 C 69.152344 48.015625 69.210938 48.035156 69.269531 48.035156 C 69.304688 48.035156 69.335938 48.03125 69.363281 48.015625 C 69.453125 47.980469 69.511719 47.898438 69.519531 47.804688 C 69.621094 46.511719 70.710938 45.5 72 45.5 C 72.207031 45.5 72.425781 45.535156 72.683594 45.605469 C 72.703125 45.613281 72.730469 45.617188 72.753906 45.617188 C 72.859375 45.617188 72.960938 45.542969 72.992188 45.433594 C 73.027344 45.300781 72.953125 45.164062 72.820312 45.125 C 72.515625 45.039062 72.257812 45 72 45 Z M 85.882812 46.5 C 84.558594 46.5 83.375 47.398438 83.007812 48.683594 C 82.972656 48.816406 83.046875 48.953125 83.179688 48.992188 C 83.203125 48.996094 83.226562 49 83.25 49 C 83.359375 49 83.460938 48.929688 83.488281 48.816406 C 83.796875 47.746094 84.777344 47 85.882812 47 C 86 47 86.113281 47.015625 86.226562 47.027344 C 86.238281 47.03125 86.246094 47.03125 86.261719 47.03125 C 86.382812 47.03125 86.488281 46.941406 86.507812 46.816406 C 86.523438 46.679688 86.429688 46.550781 86.292969 46.535156 C 86.15625 46.515625 86.023438 46.5 85.882812 46.5 Z M 85.882812 46.5 "/>
<path style=" stroke:none;fill-rule:nonzero;fill:rgb(100%,100%,100%);fill-opacity:1;" d="M 15.40625 51 L 5.5 51 C 5.222656 51 5 50.777344 5 50.5 C 5 50.222656 5.222656 50 5.5 50 L 15.40625 50 C 15.679688 50 15.90625 50.222656 15.90625 50.5 C 15.90625 50.777344 15.683594 51 15.40625 51 Z M 18.5 51 L 17.5 51 C 17.222656 51 17 50.777344 17 50.5 C 17 50.222656 17.222656 50 17.5 50 L 18.5 50 C 18.777344 50 19 50.222656 19 50.5 C 19 50.777344 18.777344 51 18.5 51 Z M 23.492188 53 L 14.5 53 C 14.222656 53 14 52.777344 14 52.5 C 14 52.222656 14.222656 52 14.5 52 L 23.492188 52 C 23.765625 52 23.992188 52.222656 23.992188 52.5 C 23.992188 52.777344 23.765625 53 23.492188 53 Z M 12.5 53 L 11.5 53 C 11.222656 53 11 52.777344 11 52.5 C 11 52.222656 11.222656 52 11.5 52 L 12.5 52 C 12.777344 52 13 52.222656 13 52.5 C 13 52.777344 12.777344 53 12.5 53 Z M 9.5 53 L 7.5 53 C 7.222656 53 7 52.777344 7 52.5 C 7 52.222656 7.222656 52 7.5 52 L 9.5 52 C 9.777344 52 10 52.222656 10 52.5 C 10 52.777344 9.777344 53 9.5 53 Z M 15.5 55 L 13.5 55 C 13.222656 55 13 54.777344 13 54.5 C 13 54.222656 13.222656 54 13.5 54 L 15.5 54 C 15.777344 54 16 54.222656 16 54.5 C 16 54.777344 15.777344 55 15.5 55 Z M 18.5 46 C 18.324219 46 17.675781 46 17.5 46 C 17.222656 46 17 46.222656 17 46.5 C 17 46.777344 17.222656 47 17.5 47 C 17.675781 47 18.324219 47 18.5 47 C 18.777344 47 19 46.777344 19 46.5 C 19 46.222656 18.777344 46 18.5 46 Z M 18.5 48 C 18.324219 48 13.675781 48 13.5 48 C 13.222656 48 13 48.222656 13 48.5 C 13 48.777344 13.222656 49 13.5 49 C 13.675781 49 18.324219 49 18.5 49 C 18.777344 49 19 48.777344 19 48.5 C 19 48.222656 18.777344 48 18.5 48 Z M 23.5 50 C 23.324219 50 20.675781 50 20.5 50 C 20.222656 50 20 50.222656 20 50.5 C 20 50.777344 20.222656 51 20.5 51 C 20.675781 51 23.324219 51 23.5 51 C 23.777344 51 24 50.777344 24 50.5 C 24 50.222656 23.777344 50 23.5 50 Z M 72.5 24 L 62.5 24 C 62.222656 24 62 23.777344 62 23.5 C 62 23.222656 62.222656 23 62.5 23 L 72.5 23 C 72.777344 23 73 23.222656 73 23.5 C 73 23.777344 72.777344 24 72.5 24 Z M 76.5 24 L 74.5 24 C 74.222656 24 74 23.777344 74 23.5 C 74 23.222656 74.222656 23 74.5 23 L 76.5 23 C 76.777344 23 77 23.222656 77 23.5 C 77 23.777344 76.777344 24 76.5 24 Z M 81.5 26 L 71.5 26 C 71.222656 26 71 25.777344 71 25.5 C 71 25.222656 71.222656 25 71.5 25 L 81.5 25 C 81.777344 25 82 25.222656 82 25.5 C 82 25.777344 81.777344 26 81.5 26 Z M 69.5 26 L 68.5 26 C 68.222656 26 68 25.777344 68 25.5 C 68 25.222656 68.222656 25 68.5 25 L 69.5 25 C 69.777344 25 70 25.222656 70 25.5 C 70 25.777344 69.777344 26 69.5 26 Z M 66.375 26 L 64.5 26 C 64.222656 26 64 25.777344 64 25.5 C 64 25.222656 64.222656 25 64.5 25 L 66.375 25 C 66.652344 25 66.875 25.222656 66.875 25.5 C 66.875 25.777344 66.652344 26 66.375 26 Z M 75.5 22 L 70.5 22 C 70.222656 22 70 21.777344 70 21.5 C 70 21.222656 70.222656 21 70.5 21 L 75.5 21 C 75.777344 21 76 21.222656 76 21.5 C 76 21.777344 75.777344 22 75.5 22 Z M 72.5 28 L 70.5 28 C 70.222656 28 70 27.777344 70 27.5 C 70 27.222656 70.222656 27 70.5 27 L 72.5 27 C 72.777344 27 73 27.222656 73 27.5 C 73 27.777344 72.777344 28 72.5 28 Z M 72.5 28 "/>
<path style=" stroke:none;fill-rule:nonzero;fill:rgb(99.607843%,83.529413%,70.19608%);fill-opacity:1;" d="M 29 64 L 29 36 C 29 31.582031 32.582031 28 37 28 L 65 28 C 69.417969 28 73 31.582031 73 36 L 73 64 C 73 68.417969 69.417969 72 65 72 L 37 72 C 32.582031 72 29 68.417969 29 64 Z M 29 64 "/>
<path style=" stroke:none;fill-rule:nonzero;fill:rgb(83.92157%,56.078434%,32.549021%);fill-opacity:1;" d="M 66.082031 28.957031 L 35.917969 28.957031 C 32.625 28.957031 29.957031 31.625 29.957031 34.917969 L 29.957031 41.75 L 72.042969 41.75 L 72.042969 34.917969 C 72.042969 31.625 69.375 28.957031 66.082031 28.957031 Z M 66.082031 28.957031 "/>
<path style=" stroke:none;fill-rule:nonzero;fill:rgb(27.843139%,16.862746%,16.078432%);fill-opacity:1;" d="M 61.5 42 L 30.5 42 C 30.222656 42 30 41.777344 30 41.5 C 30 41.222656 30.222656 41 30.5 41 L 61.5 41 C 61.777344 41 62 41.222656 62 41.5 C 62 41.777344 61.777344 42 61.5 42 Z M 61.5 42 "/>
<path style=" stroke:none;fill-rule:nonzero;fill:rgb(27.843139%,16.862746%,16.078432%);fill-opacity:1;" d="M 72.5 42 L 66.5 42 C 66.222656 42 66 41.777344 66 41.5 C 66 41.222656 66.222656 41 66.5 41 L 72.5 41 C 72.777344 41 73 41.222656 73 41.5 C 73 41.777344 72.777344 42 72.5 42 Z M 72.5 42 "/>
<path style=" stroke:none;fill-rule:nonzero;fill:rgb(99.607843%,99.215686%,93.725491%);fill-opacity:1;" d="M 51 39.476562 C 45.1875 39.476562 40.476562 44.1875 40.476562 50 C 40.476562 55.8125 45.1875 60.523438 51 60.523438 C 56.8125 60.523438 61.523438 55.8125 61.523438 50 C 61.523438 44.1875 56.8125 39.476562 51 39.476562 Z M 51 39.476562 "/>
<path style=" stroke:none;fill-rule:nonzero;fill:rgb(27.843139%,16.862746%,16.078432%);fill-opacity:1;" d="M 51 61.019531 C 44.921875 61.019531 39.980469 56.078125 39.980469 50 C 39.980469 43.921875 44.921875 38.980469 51 38.980469 C 57.078125 38.980469 62.019531 43.921875 62.019531 50 C 62.019531 56.078125 57.078125 61.019531 51 61.019531 Z M 51 39.980469 C 45.476562 39.980469 40.980469 44.476562 40.980469 50 C 40.980469 55.523438 45.476562 60.019531 51 60.019531 C 56.523438 60.019531 61.019531 55.523438 61.019531 50 C 61.019531 44.476562 56.523438 39.980469 51 39.980469 Z M 51 39.980469 "/>
<path style=" stroke:none;fill-rule:nonzero;fill:rgb(94.509804%,35.686275%,42.352942%);fill-opacity:1;" d="M 35 28.476562 L 34.957031 28.476562 C 33.878906 28.476562 33 29.359375 33 30.433594 L 33 41.871094 L 35 41.871094 Z M 35 28.476562 "/>
<path style=" stroke:none;fill-rule:nonzero;fill:rgb(56.078434%,61.960787%,71.372551%);fill-opacity:1;" d="M 51 43.304688 C 47.300781 43.304688 44.304688 46.300781 44.304688 50 C 44.304688 53.699219 47.300781 56.695312 51 56.695312 C 54.699219 56.695312 57.695312 53.699219 57.695312 50 C 57.695312 46.300781 54.699219 43.304688 51 43.304688 Z M 51 43.304688 "/>
<path style=" stroke:none;fill-rule:nonzero;fill:rgb(10.196079%,73.725492%,61.176473%);fill-opacity:1;" d="M 47.652344 45.21875 C 46.332031 45.21875 45.261719 46.289062 45.261719 47.609375 C 45.261719 48.929688 46.332031 50 47.652344 50 C 48.972656 50 50.042969 48.929688 50.042969 47.609375 C 50.042969 46.289062 48.972656 45.21875 47.652344 45.21875 Z M 47.652344 45.21875 "/>
<path style=" stroke:none;fill-rule:nonzero;fill:rgb(27.843139%,16.862746%,16.078432%);fill-opacity:1;" d="M 47.652344 50.5 C 46.058594 50.5 44.761719 49.203125 44.761719 47.609375 C 44.761719 46.015625 46.058594 44.71875 47.652344 44.71875 C 49.246094 44.71875 50.542969 46.015625 50.542969 47.609375 C 50.542969 49.203125 49.246094 50.5 47.652344 50.5 Z M 47.652344 45.71875 C 46.609375 45.71875 45.761719 46.566406 45.761719 47.609375 C 45.761719 48.652344 46.609375 49.5 47.652344 49.5 C 48.695312 49.5 49.542969 48.652344 49.542969 47.609375 C 49.542969 46.566406 48.695312 45.71875 47.652344 45.71875 Z M 47.652344 45.71875 "/>
<path style=" stroke:none;fill-rule:nonzero;fill:rgb(71.764708%,46.666667%,28.235295%);fill-opacity:1;" d="M 61.5 32.5 L 67.5 32.5 L 67.5 38.5 L 61.5 38.5 Z M 61.5 32.5 "/>
<path style=" stroke:none;fill-rule:nonzero;fill:rgb(27.843139%,16.862746%,16.078432%);fill-opacity:1;" d="M 68 39 L 61 39 L 61 32 L 68 32 Z M 62 38 L 67 38 L 67 33 L 62 33 Z M 62 38 "/>
<path style=" stroke:none;fill-rule:nonzero;fill:rgb(97.647059%,90.196079%,36.078432%);fill-opacity:1;" d="M 35 28.957031 L 37 28.957031 L 37 41.390625 L 35 41.390625 Z M 35 28.957031 "/>
<path style=" stroke:none;fill-rule:nonzero;fill:rgb(63.137257%,82.745099%,63.529414%);fill-opacity:1;" d="M 37 28.957031 L 39 28.957031 L 39 41.390625 L 37 41.390625 Z M 37 28.957031 "/>
<path style=" stroke:none;fill-rule:nonzero;fill:rgb(22.352941%,76.078433%,84.705883%);fill-opacity:1;" d="M 39 28.957031 L 41 28.957031 L 41 41.390625 L 39 41.390625 Z M 39 28.957031 "/>
<path style=" stroke:none;fill-rule:nonzero;fill:rgb(27.843139%,16.862746%,16.078432%);fill-opacity:1;" d="M 65.347656 29.398438 C 68.796875 29.398438 71.601562 32.203125 71.601562 35.652344 L 71.601562 64.347656 C 71.601562 67.796875 68.796875 70.601562 65.347656 70.601562 L 36.652344 70.601562 C 33.203125 70.601562 30.398438 67.796875 30.398438 64.347656 L 30.398438 35.652344 C 30.398438 32.203125 33.203125 29.398438 36.652344 29.398438 L 65.347656 29.398438 M 65.347656 28 L 36.652344 28 C 32.441406 28 29 31.441406 29 35.652344 L 29 64.347656 C 29 68.558594 32.441406 72 36.652344 72 L 65.347656 72 C 69.558594 72 73 68.558594 73 64.347656 L 73 35.652344 C 73 31.441406 69.558594 28 65.347656 28 Z M 65.347656 28 "/>
<path style=" stroke:none;fill-rule:nonzero;fill:rgb(71.764708%,46.666667%,28.235295%);fill-opacity:1;" d="M 39.277344 40.5 L 33.972656 40.5 C 33.238281 40.5 32.648438 41.171875 32.648438 42 C 32.648438 42.828125 33.238281 43.5 33.972656 43.5 L 39.277344 43.5 C 40.011719 43.5 40.601562 42.828125 40.601562 42 C 40.601562 41.171875 40.011719 40.5 39.277344 40.5 Z M 39.277344 40.5 "/>
<path style=" stroke:none;fill-rule:nonzero;fill:rgb(27.843139%,16.862746%,16.078432%);fill-opacity:1;" d="M 39.277344 44 L 33.972656 44 C 32.964844 44 32.144531 43.101562 32.144531 42 C 32.144531 40.898438 32.964844 40 33.972656 40 L 39.277344 40 C 40.285156 40 41.101562 40.898438 41.101562 42 C 41.101562 43.101562 40.285156 44 39.277344 44 Z M 33.972656 41 C 33.519531 41 33.148438 41.449219 33.148438 42 C 33.148438 42.550781 33.519531 43 33.972656 43 L 39.277344 43 C 39.734375 43 40.105469 42.550781 40.105469 42 C 40.105469 41.449219 39.734375 41 39.277344 41 Z M 33.972656 41 "/>
<path style=" stroke:none;fill-rule:nonzero;fill:rgb(27.843139%,16.862746%,16.078432%);fill-opacity:1;" d="M 56.550781 54.242188 C 56.453125 54.242188 56.359375 54.214844 56.273438 54.15625 C 56.042969 54.003906 55.984375 53.691406 56.136719 53.464844 C 56.828125 52.441406 57.195312 51.242188 57.195312 50 C 57.195312 49.722656 57.421875 49.5 57.695312 49.5 C 57.972656 49.5 58.195312 49.722656 58.195312 50 C 58.195312 51.441406 57.769531 52.835938 56.96875 54.023438 C 56.867188 54.164062 56.710938 54.242188 56.550781 54.242188 Z M 56.550781 54.242188 "/>
<path style=" stroke:none;fill-rule:nonzero;fill:rgb(27.843139%,16.862746%,16.078432%);fill-opacity:1;" d="M 51 57.195312 C 47.03125 57.195312 43.804688 53.96875 43.804688 50 C 43.804688 46.03125 47.03125 42.804688 51 42.804688 C 53.566406 42.804688 55.957031 44.1875 57.238281 46.414062 C 57.378906 46.652344 57.296875 46.960938 57.054688 47.097656 C 56.816406 47.234375 56.511719 47.152344 56.371094 46.914062 C 55.269531 44.996094 53.210938 43.804688 51 43.804688 C 47.582031 43.804688 44.804688 46.585938 44.804688 50 C 44.804688 53.414062 47.582031 56.195312 51 56.195312 C 51.273438 56.195312 51.5 56.417969 51.5 56.695312 C 51.5 56.972656 51.277344 57.195312 51 57.195312 Z M 51 57.195312 "/>
<path style=" stroke:none;fill-rule:nonzero;fill:rgb(99.215686%,98.823529%,93.725491%);fill-opacity:1;" d="M 36.5 73.5 C 36.5 73.5 38.066406 73.5 40 73.5 C 41.933594 73.5 43.5 71.933594 43.5 70 C 43.5 68.21875 42.164062 66.765625 40.445312 66.546875 C 40.472656 66.367188 40.5 66.1875 40.5 66 C 40.5 64.066406 38.933594 62.5 37 62.5 C 35.96875 62.5 35.050781 62.953125 34.410156 63.664062 C 34.027344 61.855469 32.421875 60.5 30.5 60.5 C 28.289062 60.5 26.5 62.289062 26.5 64.5 C 26.5 64.691406 26.53125 64.875 26.554688 65.058594 C 26.128906 64.714844 25.59375 64.5 25 64.5 C 23.773438 64.5 22.753906 65.386719 22.546875 66.554688 C 22.367188 66.527344 22.1875 66.5 22 66.5 C 20.066406 66.5 18.5 68.066406 18.5 70 C 18.5 71.933594 20.066406 73.5 22 73.5 C 23.933594 73.5 29.5 73.5 29.5 73.5 L 29.5 74 L 36.5 74 Z M 36.5 73.5 "/>
<path style=" stroke:none;fill-rule:nonzero;fill:rgb(27.843139%,16.862746%,16.078432%);fill-opacity:1;" d="M 38.25 69 C 38.113281 69 38 68.886719 38 68.75 C 38 67.527344 38.996094 66.53125 40.21875 66.53125 C 40.253906 66.539062 40.953125 66.53125 41.460938 66.667969 C 41.59375 66.703125 41.675781 66.839844 41.636719 66.972656 C 41.601562 67.109375 41.464844 67.1875 41.332031 67.148438 C 40.886719 67.03125 40.230469 67.03125 40.21875 67.03125 C 39.269531 67.03125 38.5 67.804688 38.5 68.75 C 38.5 68.886719 38.386719 69 38.25 69 Z M 31.5 73 C 31.222656 73 31 73.222656 31 73.5 C 31 73.777344 31.222656 74 31.5 74 C 31.777344 74 32 73.777344 32 73.5 C 32 73.222656 31.777344 73 31.5 73 Z M 31.5 73 "/>
<path style=" stroke:none;fill-rule:nonzero;fill:rgb(27.843139%,16.862746%,16.078432%);fill-opacity:1;" d="M 40 74 L 36.5 74 C 36.222656 74 36 73.777344 36 73.5 C 36 73.222656 36.222656 73 36.5 73 L 40 73 C 41.652344 73 43 71.652344 43 70 C 43 68.503906 41.875 67.230469 40.382812 67.039062 C 40.246094 67.023438 40.128906 66.953125 40.046875 66.84375 C 39.964844 66.738281 39.929688 66.601562 39.953125 66.46875 C 39.976562 66.3125 40 66.160156 40 66 C 40 64.347656 38.652344 63 37 63 C 36.148438 63 35.363281 63.355469 34.78125 64 C 34.65625 64.140625 34.460938 64.199219 34.28125 64.148438 C 34.097656 64.097656 33.960938 63.953125 33.921875 63.769531 C 33.578125 62.164062 32.140625 61 30.5 61 C 28.570312 61 27 62.570312 27 64.5 C 27 64.644531 27.019531 64.78125 27.039062 64.917969 C 27.070312 65.121094 26.976562 65.355469 26.800781 65.457031 C 26.621094 65.558594 26.402344 65.574219 26.242188 65.449219 C 25.878906 65.15625 25.449219 65 25 65 C 24.035156 65 23.207031 65.691406 23.035156 66.644531 C 22.988281 66.910156 22.742188 67.089844 22.46875 67.050781 C 22.3125 67.023438 22.160156 67 22 67 C 20.347656 67 19 68.347656 19 70 C 19 71.652344 20.347656 73 22 73 L 29.5 73 C 29.777344 73 30 73.222656 30 73.5 C 30 73.777344 29.777344 74 29.5 74 L 22 74 C 19.792969 74 18 72.207031 18 70 C 18 67.792969 19.792969 66 22 66 C 22.058594 66 22.117188 66.003906 22.175781 66.007812 C 22.589844 64.820312 23.710938 64 25 64 C 25.347656 64 25.6875 64.0625 26.011719 64.179688 C 26.175781 61.847656 28.125 60 30.5 60 C 32.332031 60 33.964844 61.128906 34.652344 62.773438 C 35.332031 62.277344 36.15625 62 37 62 C 39.207031 62 41 63.792969 41 66 C 41 66.046875 41 66.09375 40.996094 66.140625 C 42.738281 66.589844 44 68.167969 44 70 C 44 72.207031 42.207031 74 40 74 Z M 40 74 "/>
<path style=" stroke:none;fill-rule:nonzero;fill:rgb(27.843139%,16.862746%,16.078432%);fill-opacity:1;" d="M 34.5 73 C 34.339844 73 33.660156 73 33.5 73 C 33.222656 73 33 73.222656 33 73.5 C 33 73.777344 33.222656 74 33.5 74 C 33.660156 74 34.339844 74 34.5 74 C 34.777344 74 35 73.777344 35 73.5 C 35 73.222656 34.777344 73 34.5 73 Z M 34.5 73 "/>
</g>
</svg>
